<svg width="33" height="33" viewBox="0 0 33 33" fill="none" xmlns="http://www.w3.org/2000/svg">
<circle cx="16.5" cy="16.5" r="16.5" fill="#8DC3BA"/>
<path d="M15.634 8.8304C16.0189 8.16373 16.9811 8.16373 17.366 8.8304L19.8593 13.1489C20.2442 13.8155 19.7631 14.6489 18.9933 14.6489H14.0067C13.2369 14.6489 12.7558 13.8155 13.1407 13.1489L15.634 8.8304Z" fill="#121212"/>
<path d="M18.9933 19.5278C19.7631 19.5278 20.2442 20.3612 19.8593 21.0278L17.366 25.3463C16.9811 26.013 16.0189 26.013 15.634 25.3463L13.1407 21.0278C12.7558 20.3612 13.2369 19.5278 14.0067 19.5278L18.9933 19.5278Z" fill="#121212"/>
<path d="M18.8957 14.5513C18.8957 13.7815 19.729 13.3004 20.3957 13.6853L24.7142 16.1785C25.3808 16.5634 25.3808 17.5257 24.7142 17.9106L20.3957 20.4039C19.729 20.7888 18.8957 20.3076 18.8957 19.5378L18.8957 14.5513Z" fill="#121212"/>
<path d="M14.1043 19.6254C14.1043 20.3952 13.271 20.8763 12.6043 20.4914L8.28583 17.9982C7.61917 17.6133 7.61917 16.651 8.28583 16.2661L12.6043 13.7728C13.271 13.3879 14.1043 13.8691 14.1043 14.6389L14.1043 19.6254Z" fill="#121212"/>
<path d="M21.7484 10.8982C22.492 10.699 23.1724 11.3794 22.9731 12.123L21.6825 16.9396C21.4833 17.6832 20.5538 17.9322 20.0095 17.3879L16.4835 13.8619C15.9391 13.3176 16.1882 12.3881 16.9318 12.1889L21.7484 10.8982Z" fill="#121212"/>
<path d="M16.5595 20.8379C17.1039 21.3822 16.8548 22.3117 16.1113 22.5109L11.2946 23.8015C10.5511 24.0008 9.87064 23.3203 10.0699 22.5768L11.3605 17.7601C11.5597 17.0166 12.4892 16.7675 13.0335 17.3119L16.5595 20.8379Z" fill="#121212"/>
<path d="M20.0095 17.2499C20.5538 16.7056 21.4833 16.9546 21.6825 17.6982L22.9731 22.5148C23.1724 23.2584 22.492 23.9388 21.7484 23.7396L16.9318 22.449C16.1882 22.2497 15.9392 21.3203 16.4835 20.7759L20.0095 17.2499Z" fill="#121212"/>
<path d="M13.0335 17.4498C12.4892 17.9942 11.5597 17.7451 11.3605 17.0015L10.0699 12.1849C9.87065 11.4414 10.5511 10.7609 11.2946 10.9602L16.1113 12.2508C16.8548 12.45 17.1039 13.3795 16.5595 13.9238L13.0335 17.4498Z" fill="#121212"/>
<circle cx="16.5" cy="17.0884" r="3.65923" fill="#8DC3BA"/>
</svg>
