<svg width="33" height="33" viewBox="0 0 33 33" fill="none" xmlns="http://www.w3.org/2000/svg">
<circle cx="16.5" cy="16.5" r="16.5" fill="#8DC3BA"/>
<path d="M7 11C7.95033 11 7.95033 24 8.90067 24C9.851 24 9.851 11 10.8013 11C11.7517 11 11.7517 24 12.6998 24C13.6501 24 13.6501 11 14.5982 11C15.5486 11 15.5486 24 16.4967 24C17.447 24 17.447 11 18.3973 11C19.3477 11 19.3477 24 20.298 24C21.2483 24 21.2483 11 22.1986 11C23.149 11 23.149 24 24.0994 24C25.0496 24 25.0496 11 26 11" stroke="#121212" stroke-miterlimit="10" stroke-linecap="round"/>
</svg>
